# xmcd
#
# Track frame offsets:
#	150
#	15002
#	28658
#	40283
#	57862
#	74535
#	86915
#	103193
#	115522
#	130975
#	147337
#	160201
#
# Disc length: 2339 seconds
#
# Revision: 1
# Processed by: cddbd v1.5.2PL0 Copyright (c) Steve Scherf et al.
# Submitted via: EasyCDDAExtractor 16.0.1.1
#
DISCID=9f09210c
DTITLE=Kevin Bounds - Real Ladies Man
DYEAR=2004
DGENRE=Country
TTITLE0=Real Ladies Man
TTITLE1=She Makes Love Look easy
TTITLE2=Match Made In Heaven
TTITLE3=Hey  Big City
TTITLE4=The Bridge I'm Standing On
TTITLE5=Cowboy Cadillac
TTITLE6=You're A Hero To Me
TTITLE7=Don't Touch That Dial
TTITLE8=Husband-In-Law
TTITLE9=Raising A Little Hell
TTITLE10=Let Freedom Ring
TTITLE11=No Good In Good Bye
EXTD=
EXTT0=
EXTT1=
EXTT2=
EXTT3=
EXTT4=
EXTT5=
EXTT6=
EXTT7=
EXTT8=
EXTT9=
EXTT10=
EXTT11=
PLAYORDER=
